# xmcd CD database file
#
# Track frame offsets:
#	150
#	16482
#	33299
#	46683
#	68160
#	84246
#	102533
#	121226
#	135066
#	149814
#	168404
#	187596
#	201422
#	220684
#	240036
#	256756
#	270777
#	290868
#
# Disc length: 4094 seconds
#
# Revision: 0
# Processed by: cddbd v1.5.1PL2 Copyright (c) Steve Scherf et al.
# Submitted via: CDex 1.51
#
DISCID=ed0ffc12
DTITLE=La Barra - Majestuoso
DYEAR=2005
DGENRE=Salsa
TTITLE0=Asi no te amara jamas
TTITLE1=Confundido
TTITLE2=Creo en el amor
TTITLE3=Celosa
TTITLE4=Tengo que alejarme
TTITLE5=Olvida esa mujer
TTITLE6=La pena
TTITLE7=Curame
TTITLE8=Luna, dile que la quiero
TTITLE9=Perdoname
TTITLE10=Tu tenias razon
TTITLE11=Nada ni nadie
TTITLE12=Tengo ganas
TTITLE13=Gotas de pena
TTITLE14=Enamorado de ella
TTITLE15=Me enamore
TTITLE16=Sentirte mia
TTITLE17=No se sabe
EXTD=YEAR: 2005
EXTT0=
EXTT1=
EXTT2=
EXTT3=
EXTT4=
EXTT5=
EXTT6=
EXTT7=
EXTT8=
EXTT9=
EXTT10=
EXTT11=
EXTT12=
EXTT13=
EXTT14=
EXTT15=
EXTT16=
EXTT17=
PLAYORDER=
